<svg width="64" height="64" viewBox="0 0 64 64" fill="none" xmlns="http://www.w3.org/2000/svg">
<path fill-rule="evenodd" clip-rule="evenodd" d="M12.05 32.3C12.15 30.8 12.46 29.37 12.96 28.02C12.47 29.37 12.15 30.8 12.05 32.3ZM31.3 18.47C32.7 16.38 35.09 15 37.81 15C41.77 15 45.04 17.94 45.56 21.77C46.04 21.7 46.52 21.67 47.01 21.67C53.06 21.67 57.96 26.57 57.96 32.62C57.96 34.39 57.54 36.06 56.8 37.53C55.98 37.1 55.04 36.85 54.04 36.85C53.38 31.7 48.97 27.72 43.64 27.72C43 27.72 42.37 27.78 41.75 27.89C40.01 23.29 36.12 19.74 31.3 18.47Z" fill="#0E6096"/>
<path fill-rule="evenodd" clip-rule="evenodd" d="M12.2 48.7C7.67 48.7 4 45.03 4 40.5C4 36.02 7.59 32.38 12.05 32.3C12.59 24.29 19.25 17.97 27.38 17.97C33.95 17.97 39.56 22.09 41.75 27.89C42.37 27.78 43 27.72 43.64 27.72C48.97 27.72 53.38 31.7 54.04 36.85C57.31 36.85 59.96 39.51 59.96 42.77C59.96 46 57.39 48.62 54.19 48.7C40.19 48.89 26.19 48.7 12.2 48.7Z" fill="#1AB5ED"/>
</svg>
