<svg width="64" height="64" viewBox="0 0 64 64" fill="none" xmlns="http://www.w3.org/2000/svg">
<path d="M14.2946 23.3647C17.8099 24.3066 21.4232 22.2205 22.3652 18.7052C23.3071 15.1898 21.2209 11.5765 17.7056 10.6346C14.1903 9.69267 10.577 11.7788 9.63506 15.2941C8.69314 18.8095 10.7793 22.4228 14.2946 23.3647Z" fill="#FFC106"/>
<path d="M16 7C16 7.77551 16 8.02041 16 8.02041M11 8.34184C11.3878 9.01531 11.5102 9.22449 11.5102 9.22449M7.34184 12C8.01531 12.3878 8.22449 12.5102 8.22449 12.5102M6 17C6.78061 17 7.02041 17 7.02041 17M7.34184 22C8.01531 21.6122 8.22449 21.4898 8.22449 21.4898M11 25.6582C11.3878 24.9847 11.5102 24.7755 11.5102 24.7755M16 27C16 26.2194 16 25.9796 16 25.9796M21 25.6582C20.6122 24.9847 20.4898 24.7755 20.4898 24.7755M24.6582 22C23.9847 21.6122 23.7755 21.4898 23.7755 21.4898M26 17C25.2194 17 24.9796 17 24.9796 17M24.6582 12C23.9847 12.3878 23.7755 12.5102 23.7755 12.5102M21 8.34184C20.6122 9.01531 20.4898 9.22449 20.4898 9.22449" stroke="#FFC106" stroke-width="2.5" stroke-miterlimit="22.9256" stroke-linecap="round" stroke-linejoin="bevel"/>
<path d="M22.3 46.27C22.54 45.63 23.26 45.31 23.9 45.55C24.55 45.79 24.87 46.51 24.63 47.15L23.11 51.2C22.87 51.84 22.15 52.17 21.5 51.92C20.86 51.68 20.53 50.96 20.77 50.32L22.3 46.27ZM32.21 46.28C32.45 45.64 33.17 45.31 33.81 45.55C34.45 45.79 34.78 46.51 34.54 47.15L31.75 54.67C31.51 55.31 30.79 55.64 30.15 55.4C29.5 55.16 29.18 54.44 29.42 53.8L32.21 46.28ZM40.85 46.27C41.09 45.63 41.81 45.31 42.46 45.55C43.1 45.79 43.42 46.51 43.18 47.15L41.66 51.2C41.42 51.84 40.7 52.17 40.05 51.92C39.41 51.68 39.08 50.96 39.33 50.32L40.85 46.27Z" fill="#0E6096"/>
<path fill-rule="evenodd" clip-rule="evenodd" d="M12.07 25.82C12.17 24.32 12.48 22.89 12.98 21.54C12.49 22.89 12.17 24.32 12.07 25.82ZM31.32 11.99C32.72 9.9 35.11 8.52 37.83 8.52C41.79 8.52 45.06 11.46 45.58 15.29C46.06 15.22 46.54 15.19 47.03 15.19C53.08 15.19 57.98 20.09 57.98 26.14C57.98 27.91 57.56 29.58 56.82 31.05C56 30.62 55.06 30.37 54.06 30.37C53.4 25.22 48.99 21.24 43.66 21.24C43.02 21.24 42.39 21.3 41.77 21.41C40.03 16.81 36.14 13.26 31.32 11.99Z" fill="#0E6096"/>
<path fill-rule="evenodd" clip-rule="evenodd" d="M12.22 42.22C7.68999 42.22 4.01999 38.55 4.01999 34.02C4.01999 29.54 7.60999 25.9 12.07 25.82C12.61 17.81 19.27 11.49 27.4 11.49C33.97 11.49 39.58 15.61 41.77 21.41C42.39 21.3 43.02 21.24 43.66 21.24C48.99 21.24 53.4 25.22 54.06 30.37C57.33 30.37 59.98 33.03 59.98 36.29C59.98 39.52 57.41 42.14 54.21 42.22C40.21 42.41 26.21 42.22 12.22 42.22Z" fill="#1AB5ED"/>
</svg>
