<svg width="64" height="64" viewBox="0 0 64 64" fill="none" xmlns="http://www.w3.org/2000/svg">
<rect width="64" height="64" fill="#1E1E1E"/>
<ellipse cx="44.2656" cy="29" rx="2.73438" ry="2" fill="white"/>
<ellipse cx="14.7344" cy="29" rx="2.73438" ry="2" fill="white"/>
<path d="M14.7344 27.4H44.2656M44.2656 30.6H14.7344" stroke="white"/>
<ellipse cx="30.0469" cy="29" rx="14.7656" ry="2" fill="white"/>
<path d="M19.846 28.5325C19.6334 28.5325 19.5256 28.6145 19.3345 28.6416C19.0809 28.6775 18.7891 28.648 18.5306 28.648C18.1606 28.648 17.8749 28.5753 17.7122 28.849C17.6033 29.0322 17.2272 29.4289 17.6362 29.5844C17.9397 29.6999 18.3047 29.5698 18.478 29.4177" stroke="white" stroke-width="3" stroke-linecap="round"/>
<ellipse cx="50.1094" cy="23" rx="2.89062" ry="2" fill="white"/>
<ellipse cx="18.8906" cy="23" rx="2.89062" ry="2" fill="white"/>
<path d="M18.8906 21.4H50.1094M50.1094 24.6H18.8906" stroke="white"/>
<ellipse cx="35.0781" cy="23" rx="15.6094" ry="2" fill="white"/>
<path d="M24.2944 22.5325C24.0696 22.5325 23.9556 22.6145 23.7536 22.6416C23.4855 22.6775 23.177 22.648 22.9038 22.648C22.5126 22.648 22.2106 22.5753 22.0386 22.849C21.9235 23.0322 21.526 23.4289 21.9582 23.5844C22.2791 23.6999 22.665 23.5698 22.8482 23.4177" stroke="white" stroke-width="3" stroke-linecap="round"/>
<ellipse cx="51.3281" cy="35" rx="3.67188" ry="2" fill="white"/>
<ellipse cx="11.6719" cy="35" rx="3.67188" ry="2" fill="white"/>
<path d="M11.6719 33.4H51.3281M51.3281 36.6H11.6719" stroke="white"/>
<ellipse cx="32.2344" cy="35" rx="19.8281" ry="2" fill="white"/>
<path d="M18.5361 34.5325C18.2506 34.5325 18.1058 34.6145 17.8492 34.6416C17.5086 34.6775 17.1168 34.648 16.7697 34.648C16.2728 34.648 15.8891 34.5752 15.6706 34.849C15.5244 35.0322 15.0195 35.4289 15.5686 35.5844C15.9761 35.6999 16.4663 35.5698 16.6991 35.4177" stroke="white" stroke-width="3" stroke-linecap="round"/>
<ellipse cx="36.2812" cy="41" rx="1.71875" ry="2" fill="white"/>
<ellipse cx="17.7188" cy="41" rx="1.71875" ry="2" fill="white"/>
<path d="M17.7188 39.4H36.2812M36.2812 42.6H17.7188" stroke="white"/>
<ellipse cx="27.3438" cy="41" rx="9.28125" ry="2" fill="white"/>
<path d="M20.9318 40.5325C20.7981 40.5325 20.7304 40.6145 20.6102 40.6416C20.4508 40.6775 20.2674 40.648 20.105 40.648C19.8724 40.648 19.6928 40.5752 19.5905 40.849C19.5221 41.0322 19.2857 41.4289 19.5427 41.5844C19.7335 41.6999 19.9629 41.5698 20.0719 41.4177" stroke="white" stroke-width="3" stroke-linecap="round"/>
<ellipse cx="46.7188" cy="17" rx="3.28125" ry="2" fill="white"/>
<ellipse cx="11.2812" cy="17" rx="3.28125" ry="2" fill="white"/>
<path d="M11.2812 15.4H46.7188M46.7188 18.6H11.2812" stroke="white"/>
<ellipse cx="29.6562" cy="17" rx="17.7188" ry="2" fill="white"/>
<path d="M17.4152 16.5325C17.1601 16.5325 17.0307 16.6145 16.8014 16.6416C16.4971 16.6775 16.1469 16.648 15.8368 16.648C15.3927 16.648 15.0499 16.5753 14.8546 16.849C14.7239 17.0322 14.2727 17.4289 14.7634 17.5844C15.1276 17.6999 15.5656 17.5698 15.7736 17.4177" stroke="white" stroke-width="3" stroke-linecap="round"/>
<ellipse cx="53.9375" cy="47" rx="4.0625" ry="2" fill="white"/>
<ellipse cx="10.0625" cy="47" rx="4.0625" ry="2" fill="white"/>
<path d="M10.0625 45.4H53.9375M53.9375 48.6H10.0625" stroke="white"/>
<ellipse cx="32.8125" cy="47" rx="21.9375" ry="2" fill="white"/>
<path d="M17.657 46.5325C17.3411 46.5325 17.1809 46.6145 16.897 46.6416C16.5202 46.6775 16.0866 46.648 15.7027 46.648C15.1529 46.648 14.7284 46.5752 14.4867 46.849C14.3249 47.0322 13.7662 47.4289 14.3738 47.5844C14.8247 47.6999 15.367 47.5698 15.6245 47.4177" stroke="white" stroke-width="3" stroke-linecap="round"/>
</svg>
