<svg width="64" height="64" viewBox="0 0 64 64" fill="none" xmlns="http://www.w3.org/2000/svg">
<path d="M32 6L54.5167 19V45L32 58L9.48334 45V19L32 6Z" fill="#E73F62"/>
<path d="M32 11L50.1865 21.5V42.5L32 53L13.8135 42.5V21.5L32 11Z" fill="#F4C3D2"/>
<path d="M32 16L45.8564 24V40L32 48L18.1436 40V24L32 16Z" fill="#E73F62"/>
<path d="M32 21L41.5263 26.5V37.5L32 43L22.4737 37.5V26.5L32 21Z" fill="#F4C3D2"/>
<path d="M32 26L37.1961 29V35L32 38L26.8038 35V29L32 26Z" fill="#E73F62"/>
<path d="M32 29L34.5981 30.5V33.5L32 35L29.4019 33.5V30.5L32 29Z" fill="#F4C3D2"/>
<mask id="mask0_0_1" style="mask-type:alpha" maskUnits="userSpaceOnUse" x="11" y="19" width="42" height="22">
<g style="mix-blend-mode:multiply">
<path fill-rule="evenodd" clip-rule="evenodd" d="M17.1544 40.9418C13.7545 40.9418 11 38.3213 11 35.0868C11 31.888 13.6944 29.2819 17.0493 29.2319C17.4471 23.5126 22.4457 19 28.5475 19C33.4786 19 37.6891 21.9418 39.3327 26.0831C39.7981 26.0045 40.2709 25.9617 40.7513 25.9617C44.7516 25.9617 48.0615 28.8035 48.5568 32.4807C51.0111 32.4807 53 34.3728 53 36.7076C53 39.0139 51.0711 40.8846 48.6694 40.9346C38.1619 41.0774 27.6619 40.9418 17.1544 40.9418Z" fill="white"/>
</g>
</mask>
<g mask="url(#mask0_0_1)">
<path d="M32 6L54.5167 19V45L32 58L9.48334 45V19L32 6Z" fill="#F4C3D2"/>
<path d="M32 11L50.1865 21.5V42.5L32 53L13.8135 42.5V21.5L32 11Z" fill="#260450"/>
<path d="M32 16L45.8564 24V40L32 48L18.1436 40V24L32 16Z" fill="#F4C3D2"/>
<path d="M32 21L41.5263 26.5V37.5L32 43L22.4737 37.5V26.5L32 21Z" fill="#260450"/>
<path d="M32 26L37.1961 29V35L32 38L26.8038 35V29L32 26Z" fill="#F4C3D2"/>
<path d="M32 29L34.5981 30.5V33.5L32 35L29.4019 33.5V30.5L32 29Z" fill="#260450"/>
</g>
</svg>
